<?xml version="1.0" encoding="UTF-8" standalone="no"?>
<!-- Created with Inkscape (http://www.inkscape.org/) -->
<svg
   xmlns:dc="http://purl.org/dc/elements/1.1/"
   xmlns:cc="http://creativecommons.org/ns#"
   xmlns:rdf="http://www.w3.org/1999/02/22-rdf-syntax-ns#"
   xmlns:svg="http://www.w3.org/2000/svg"
   xmlns="http://www.w3.org/2000/svg"
   xmlns:sodipodi="http://sodipodi.sourceforge.net/DTD/sodipodi-0.dtd"
   xmlns:inkscape="http://www.inkscape.org/namespaces/inkscape"
   width="36"
   height="36"
   id="svg2502"
   sodipodi:version="0.32"
   inkscape:version="0.46"
   version="1.0"
   sodipodi:docname="resize_enfonce.svg"
   inkscape:output_extension="org.inkscape.output.svg.inkscape"
   inkscape:export-filename="/home/gtokarski/Documents/icones_navig/resize-enfonce.png"
   inkscape:export-xdpi="90"
   inkscape:export-ydpi="90">
  <defs
     id="defs2504">
    <inkscape:perspective
       sodipodi:type="inkscape:persp3d"
       inkscape:vp_x="0 : 24 : 1"
       inkscape:vp_y="0 : 1000 : 0"
       inkscape:vp_z="48 : 24 : 1"
       inkscape:persp3d-origin="24 : 16 : 1"
       id="perspective2510" />
  </defs>
  <sodipodi:namedview
     id="base"
     pagecolor="#ffffff"
     bordercolor="#666666"
     borderopacity="1.0"
     inkscape:pageopacity="0.0"
     inkscape:pageshadow="2"
     inkscape:zoom="7"
     inkscape:cx="24"
     inkscape:cy="24"
     inkscape:current-layer="layer1"
     showgrid="true"
     inkscape:grid-bbox="true"
     inkscape:document-units="px"
     inkscape:window-width="640"
     inkscape:window-height="654"
     inkscape:window-x="144"
     inkscape:window-y="38" />
  <metadata
     id="metadata2507">
    <rdf:RDF>
      <cc:Work
         rdf:about="">
        <dc:format>image/svg+xml</dc:format>
        <dc:type
           rdf:resource="http://purl.org/dc/dcmitype/StillImage" />
      </cc:Work>
    </rdf:RDF>
  </metadata>
  <g
     id="layer1"
     inkscape:label="Layer 1"
     inkscape:groupmode="layer">
    <g
       id="g8999"
       transform="matrix(2.3940378,0,0,2.598453,-132.79647,-145.46246)">
      <g
         transform="matrix(0.98396,0,0,1,14.89424,0)"
         id="g8981">
        <rect
           ry="0"
           rx="0"
           y="56.8955"
           x="42.324551"
           height="11.969237"
           width="13.112954"
           id="rect2586"
           style="fill:none;fill-opacity:1;fill-rule:nonzero;stroke:#ff0000;stroke-width:0.62702399;stroke-linecap:butt;stroke-linejoin:miter;stroke-miterlimit:4;stroke-dasharray:1.25404803, 1.25404803;stroke-dashoffset:0.68972642;stroke-opacity:1" />
        <path
           id="rect3461"
           style="fill:#000000;fill-opacity:1;fill-rule:nonzero;stroke:none;stroke-width:1.0704453;stroke-linecap:butt;stroke-linejoin:miter;stroke-miterlimit:4;stroke-dasharray:2.1408906, 2.1408906;stroke-dashoffset:1.60566795;stroke-opacity:1"
           d="M 54.444192,64.07334 L 54.950848,68.108819 L 50.759285,68.267088 L 53.346271,66.776933 L 54.444192,64.07334 z M 49.925174,65.088131 L 51.021826,63.798861 L 54.443282,66.587004 L 53.346629,67.876272 L 49.925174,65.088131 z" />
      </g>
      <g
         transform="matrix(0.597403,0,0,0.607142,37.08926,22.5711)"
         id="g6156">
        <rect
           style="opacity:1;fill:#8db8fa;fill-opacity:1;fill-rule:nonzero;stroke:#000000;stroke-width:0.83442265;stroke-linecap:butt;stroke-linejoin:miter;stroke-miterlimit:4;stroke-dasharray:none;stroke-dashoffset:0;stroke-opacity:1"
           id="rect1711"
           width="12.622033"
           height="11.909588"
           x="32.449398"
           y="56.445744"
           rx="0"
           ry="0" />
        <path
           style="opacity:1;fill:#069b0c;fill-opacity:1;fill-rule:nonzero;stroke:#000000;stroke-width:0.39364421;stroke-linecap:butt;stroke-linejoin:miter;stroke-miterlimit:4;stroke-dasharray:none;stroke-dashoffset:0;stroke-opacity:1"
           d="M 33.936245,56.642115 C 33.467174,57.018583 33.004433,57.434734 32.613763,57.802636 L 32.613763,60.529858 C 32.622047,60.528641 32.641048,60.530846 32.649506,60.529858 C 32.675393,60.52759 32.729318,60.530041 32.756734,60.529858 C 32.803267,60.530719 32.884785,60.523161 32.935447,60.529858 C 33.089869,60.553465 33.282385,60.627039 33.47159,60.703937 C 33.594212,60.753774 33.696697,60.780198 33.793274,60.790976 C 33.798939,60.79145 33.823359,60.790663 33.829017,60.790976 C 33.834676,60.791124 33.859091,60.790994 33.86476,60.790976 C 33.870444,60.790787 33.89479,60.791336 33.900503,60.790976 C 33.906247,60.79044 33.930458,60.79169 33.936245,60.790976 C 33.942083,60.790081 33.966091,60.792053 33.971988,60.790976 C 33.977951,60.789713 34.001692,60.763413 34.007731,60.761962 C 34.013853,60.760319 34.037259,60.7638 34.043473,60.761962 C 34.245557,60.696925 34.492549,60.521863 34.937043,60.210716 C 35.407008,59.881741 35.930509,59.607436 36.152298,59.543417 C 36.15951,59.541679 36.181562,59.544589 36.18804,59.543417 C 36.193756,59.542824 36.218857,59.543417 36.223783,59.543417 C 36.248802,59.542826 36.304388,59.516689 36.331012,59.514404 C 36.800784,59.465412 37.495497,59.178116 37.72498,58.934144 C 37.729057,58.929486 37.756992,58.909746 37.760722,58.905129 C 37.764096,58.900558 37.757715,58.88064 37.760722,58.876118 C 37.763356,58.871647 37.794217,58.851518 37.796466,58.847104 C 37.798787,58.841655 37.794335,58.823743 37.796466,58.818091 C 37.798404,58.812243 37.794715,58.795112 37.796466,58.789078 C 37.799599,58.776658 37.829795,58.744123 37.832208,58.731052 C 37.877599,58.436927 37.747447,57.985269 37.58201,57.802636 C 37.578206,57.79875 37.550109,57.777235 37.546267,57.773624 C 37.542355,57.770583 37.514466,57.747348 37.510523,57.74461 C 37.502536,57.740392 37.482848,57.718481 37.474781,57.715597 C 37.47073,57.714501 37.4431,57.716337 37.439037,57.715597 C 37.435631,57.715597 37.406381,57.715921 37.403295,57.715597 C 37.399639,57.712509 37.369983,57.690794 37.367553,57.686584 C 37.367236,57.683695 37.367574,57.660703 37.367553,57.65757 C 37.368111,57.653973 37.366708,57.632376 37.367553,57.628557 C 37.368681,57.624527 37.366143,57.603781 37.367553,57.599545 C 37.392876,57.533045 37.463078,57.434844 37.546267,57.338427 C 37.584727,57.29385 37.626122,57.24363 37.653494,57.193362 C 37.664564,57.171561 37.680135,57.128761 37.689238,57.106324 C 37.700509,57.076184 37.717108,57.020997 37.72498,56.990272 C 37.732016,56.959473 37.756985,56.904997 37.760722,56.874219 C 37.763652,56.843521 37.760985,56.788241 37.760722,56.758167 C 37.759939,56.735785 37.763249,56.692853 37.760722,56.671128 C 37.75969,56.663975 37.761946,56.649171 37.760722,56.642115 L 33.936245,56.642115 z M 40.369946,56.642115 C 40.372753,56.658423 40.366323,56.683679 40.369946,56.70014 C 40.394072,56.799218 40.462796,56.924581 40.512917,57.019285 C 40.525933,57.042701 40.53424,57.083838 40.548661,57.106324 C 40.563528,57.128446 40.603977,57.172483 40.620145,57.193362 C 40.647787,57.227388 40.696485,57.279918 40.727373,57.309414 C 40.733672,57.315108 40.756699,57.332951 40.763117,57.338427 C 40.76965,57.343682 40.792214,57.36242 40.798859,57.36744 C 40.832633,57.391335 40.869789,57.437264 40.906087,57.454479 C 40.948994,57.474828 41.012811,57.487869 41.049058,57.512506 C 41.054913,57.516713 41.079138,57.537215 41.084802,57.541518 C 41.090276,57.545913 41.11526,57.566051 41.120544,57.570532 C 41.146007,57.593342 41.171418,57.633116 41.19203,57.65757 C 41.195954,57.662512 41.224043,57.681596 41.227772,57.686584 C 41.231302,57.691611 41.22444,57.710534 41.227772,57.715597 C 41.230902,57.720689 41.260586,57.739491 41.263516,57.74461 C 41.266243,57.749748 41.260992,57.768469 41.263516,57.773624 C 41.265835,57.778787 41.297142,57.797467 41.299259,57.802636 C 41.30308,57.812972 41.296263,57.850356 41.299259,57.860661 C 41.300548,57.865799 41.298178,57.884559 41.299259,57.889674 C 41.300129,57.894766 41.298596,57.913627 41.299259,57.918686 C 41.299708,57.923713 41.299022,57.942716 41.299259,57.947701 C 41.299282,57.952639 41.299448,57.971826 41.299259,57.976714 C 41.298853,57.981544 41.29988,58.000957 41.299259,58.005727 C 41.29842,58.010431 41.300315,58.030106 41.299259,58.03474 C 41.297985,58.039297 41.300751,58.059278 41.299259,58.063752 C 41.297545,58.068143 41.301191,58.088468 41.299259,58.092766 C 41.294946,58.101167 41.268718,58.113793 41.263516,58.121778 C 41.257863,58.12954 41.234328,58.143509 41.227772,58.150792 C 41.224267,58.154307 41.231507,58.176423 41.227772,58.179805 C 41.215887,58.189541 41.170247,58.200409 41.156286,58.208818 C 41.146515,58.214109 41.13125,58.233199 41.120544,58.237831 C 41.114954,58.239973 41.090625,58.235866 41.084802,58.237831 C 41.078741,58.239613 41.055357,58.26525 41.049058,58.266844 C 41.043787,58.268567 41.017857,58.264916 41.013316,58.266844 C 41.010182,58.269198 40.980028,58.293279 40.977573,58.295857 C 40.97642,58.298895 40.978102,58.321592 40.977573,58.32487 C 40.978243,58.32864 40.976331,58.349856 40.977573,58.353884 C 40.982963,58.366744 41.003246,58.396596 41.013316,58.411909 C 41.017157,58.417297 41.044749,58.435245 41.049058,58.440922 C 41.115685,58.524522 41.241669,58.639478 41.370744,58.789078 C 41.465397,58.898783 41.495959,59.003216 41.513715,59.079206 C 41.515902,59.092477 41.513492,59.125055 41.513715,59.137234 C 41.513012,59.148873 41.516153,59.184702 41.513715,59.19526 C 41.512092,59.20027 41.515725,59.219531 41.513715,59.224273 C 41.511337,59.228748 41.480694,59.249078 41.477972,59.253286 C 41.471253,59.260643 41.450068,59.275994 41.442229,59.282298 C 41.433888,59.288079 41.415716,59.306575 41.406487,59.311312 C 41.396871,59.31553 41.381019,59.337141 41.370744,59.340325 C 41.365966,59.341535 41.339363,59.339033 41.335001,59.340325 C 41.331443,59.341773 41.302427,59.338804 41.299259,59.340325 C 41.296471,59.341916 41.301672,59.36768 41.299259,59.369338 C 41.297206,59.371059 41.265209,59.367558 41.263516,59.369338 C 41.262508,59.371229 41.264193,59.39641 41.263516,59.398351 C 41.264075,59.400462 41.262667,59.42522 41.263516,59.427364 C 41.264913,59.429568 41.297597,59.425136 41.299259,59.427364 C 41.303088,59.431865 41.294463,59.45181 41.299259,59.456378 C 41.327738,59.479409 41.396355,59.521308 41.442229,59.543417 C 41.538905,59.586493 41.690919,59.642002 41.799656,59.659468 C 41.831524,59.663514 41.8785,59.659468 41.906884,59.659468 C 41.909192,59.659766 41.940437,59.659023 41.942627,59.659468 C 41.944259,59.660619 41.976849,59.687197 41.978371,59.688481 C 41.980363,59.692353 41.976783,59.713127 41.978371,59.717496 C 41.979564,59.722343 41.977563,59.741193 41.978371,59.746508 C 41.979234,59.758039 41.978953,59.791281 41.978371,59.804533 C 41.975179,59.839707 41.989534,59.905301 41.978371,59.949598 C 41.867374,60.353564 41.452143,61.062312 41.19203,61.458275 C 40.672655,62.24891 40.981985,63.515587 41.763914,63.866354 C 42.324734,64.117935 42.445815,64.127133 43.372339,63.866354 C 43.923474,63.711234 44.210315,63.657368 44.408879,63.692278 C 44.478208,63.707943 44.567777,63.740407 44.623336,63.779316 C 44.646763,63.797099 44.674314,63.835502 44.694822,63.866354 C 44.698805,63.873012 44.726701,63.888236 44.730565,63.895368 L 44.730565,58.847104 C 44.727835,58.856067 44.699324,58.866962 44.694822,58.876118 C 44.692127,58.88074 44.697961,58.90046 44.694822,58.905129 C 44.691239,58.909845 44.663108,58.929383 44.659079,58.934144 C 44.654603,58.938947 44.62826,58.958307 44.623336,58.963157 C 44.607226,58.977828 44.572003,59.006135 44.551852,59.021182 C 44.544683,59.026238 44.523727,59.0451 44.516108,59.050196 C 44.491895,59.065599 44.43717,59.092479 44.408879,59.10822 C 44.398995,59.113504 44.383476,59.131915 44.373137,59.137234 C 44.062386,59.297081 43.411976,59.398351 42.800455,59.398351 C 42.330838,59.398351 42.049923,59.391726 41.906884,59.340325 C 41.902863,59.338549 41.87495,59.342188 41.871141,59.340325 C 41.863947,59.336422 41.84179,59.315585 41.835399,59.311312 C 41.829769,59.306651 41.804571,59.287361 41.799656,59.282298 C 41.797534,59.27956 41.801621,59.256134 41.799656,59.253286 C 41.767103,59.200057 41.763914,59.116107 41.763914,59.021182 C 41.76468,59.006846 41.761637,58.977076 41.763914,58.963157 C 41.775996,58.908325 41.800548,58.836786 41.835399,58.789078 C 41.882359,58.730611 41.970952,58.661151 42.049856,58.615 C 42.115374,58.579116 42.216416,58.526191 42.300056,58.498946 C 42.632428,58.397726 43.089643,58.360096 43.62254,58.411909 C 44.110455,58.459348 44.465994,58.542721 44.623336,58.644012 C 44.628524,58.64769 44.654323,58.66929 44.659079,58.673026 C 44.667725,58.680611 44.687911,58.694228 44.694822,58.702038 C 44.697843,58.706 44.692237,58.727036 44.694822,58.731052 C 44.69912,58.739194 44.728015,58.75171 44.730565,58.760065 L 44.730565,57.918686 C 44.698865,57.902105 44.643294,57.878474 44.623336,57.860661 C 44.620757,57.858111 44.625638,57.834202 44.623336,57.831648 C 44.61989,57.82656 44.589819,57.807667 44.587594,57.802636 C 44.587455,57.800196 44.587393,57.776026 44.587594,57.773624 C 44.588561,57.768521 44.58683,57.749761 44.587594,57.74461 C 44.588721,57.734209 44.587267,57.697173 44.587594,57.686584 C 44.587559,57.681242 44.587825,57.662957 44.587594,57.65757 C 44.564529,57.364297 44.270273,57.003306 43.76551,56.642115 L 40.369946,56.642115 z M 35.866355,57.07731 C 35.871834,57.075573 35.896518,57.078887 35.902098,57.07731 C 35.907778,57.075895 35.932063,57.07856 35.937841,57.07731 C 35.943715,57.076229 35.967614,57.078217 35.973583,57.07731 C 35.979647,57.076578 36.003173,57.077865 36.009326,57.07731 C 36.015566,57.076938 36.038743,57.077497 36.04507,57.07731 C 36.052818,57.07731 36.073392,57.077064 36.080813,57.07731 C 36.095,57.078302 36.139402,57.075295 36.152298,57.07731 C 36.158426,57.07858 36.182228,57.075775 36.18804,57.07731 C 36.199036,57.080919 36.214029,57.10161 36.223783,57.106324 C 36.228355,57.108962 36.255258,57.103399 36.259526,57.106324 C 36.271423,57.115966 36.286039,57.152029 36.29527,57.16435 C 36.300262,57.173792 36.327158,57.211669 36.331012,57.222375 C 36.332655,57.228051 36.329645,57.245388 36.331012,57.251388 C 36.333192,57.264047 36.329922,57.295413 36.331012,57.309414 C 36.332946,57.360807 36.341754,57.443602 36.331012,57.512506 C 36.325354,57.54339 36.303724,57.600163 36.29527,57.628557 C 36.28389,57.663246 36.274581,57.714107 36.259526,57.74461 C 36.256383,57.750536 36.227053,57.767872 36.223783,57.773624 C 36.210218,57.795914 36.203357,57.841307 36.18804,57.860661 C 36.184115,57.865312 36.156315,57.885216 36.152298,57.889674 C 36.148113,57.893746 36.120817,57.914814 36.116555,57.918686 C 36.107889,57.926036 36.089734,57.941163 36.080813,57.947701 C 36.076296,57.950763 36.049637,57.973858 36.04507,57.976714 C 36.0311,57.984013 35.987833,58.000376 35.973583,58.005727 C 35.968797,58.007067 35.94264,58.004612 35.937841,58.005727 C 35.933037,58.006615 35.906904,58.005067 35.902098,58.005727 C 35.892497,58.006578 35.875909,58.034827 35.866355,58.03474 C 35.861598,58.034458 35.835348,58.006247 35.830613,58.005727 C 35.825942,58.00472 35.799499,58.00698 35.79487,58.005727 C 35.790283,58.004226 35.763664,58.007479 35.759128,58.005727 C 35.750162,58.001715 35.732099,57.981749 35.723385,57.976714 C 35.719171,57.973674 35.691776,57.951004 35.687642,57.947701 C 35.683681,57.943866 35.655762,57.922792 35.6519,57.918686 C 35.640605,57.905555 35.62646,57.876281 35.616157,57.860661 C 35.612842,57.855175 35.583603,57.83742 35.580414,57.831648 C 35.57463,57.820204 35.585376,57.785097 35.580414,57.773624 C 35.49608,57.561241 35.545308,57.328294 35.687642,57.193362 C 35.691745,57.18995 35.719155,57.167639 35.723385,57.16435 C 35.727855,57.161313 35.754535,57.138241 35.759128,57.135337 C 35.763836,57.132566 35.790044,57.137968 35.79487,57.135337 C 35.804748,57.130354 35.820293,57.110721 35.830613,57.106324 C 35.841148,57.102227 35.855399,57.080786 35.866355,57.07731 z M 38.618551,57.07731 C 38.601249,57.086205 38.596084,57.123133 38.582807,57.135337 C 38.574998,57.144096 38.552567,57.154513 38.547065,57.16435 C 38.542826,57.174639 38.54855,57.211346 38.547065,57.222375 C 38.547065,57.228032 38.546321,57.245873 38.547065,57.251388 C 38.548514,57.256733 38.544944,57.275255 38.547065,57.280401 C 38.555319,57.295154 38.56953,57.326224 38.582807,57.338427 C 38.587716,57.342156 38.613192,57.364079 38.618551,57.36744 C 38.624317,57.370406 38.648153,57.364899 38.654293,57.36744 C 38.667245,57.371619 38.711704,57.394251 38.725778,57.396454 C 38.73304,57.397018 38.754072,57.396454 38.761521,57.396454 C 38.790568,57.394195 38.844189,57.377605 38.868749,57.36744 C 38.880283,57.361509 38.894672,57.345884 38.904492,57.338427 C 38.908917,57.334358 38.93633,57.313793 38.940234,57.309414 C 38.950274,57.295425 38.97163,57.267419 38.975977,57.251388 C 38.97672,57.245873 38.975977,57.228032 38.975977,57.222375 C 38.973004,57.200318 38.953619,57.153988 38.940234,57.135337 C 38.932425,57.126578 38.91431,57.11378 38.904492,57.106324 C 38.899135,57.102963 38.874516,57.080276 38.868749,57.07731 C 38.86261,57.07477 38.839483,57.0794 38.833006,57.07731 C 38.819456,57.074092 38.776043,57.078439 38.761521,57.07731 C 38.754072,57.07731 38.73304,57.076746 38.725778,57.07731 C 38.711704,57.079513 38.667245,57.073132 38.654293,57.07731 C 38.648153,57.079852 38.624317,57.074345 38.618551,57.07731 z M 39.369148,57.135337 C 39.368188,57.137525 39.369859,57.161774 39.369148,57.16435 C 39.368931,57.167703 39.369117,57.189617 39.369148,57.193362 C 39.372196,57.238892 39.372488,57.302355 39.40489,57.396454 C 39.433627,57.479904 39.480773,57.560333 39.51212,57.599545 C 39.517303,57.604766 39.542749,57.624675 39.547862,57.628557 C 39.550298,57.629125 39.581209,57.628342 39.583605,57.628557 C 39.5858,57.627335 39.617213,57.630146 39.619348,57.628557 C 39.621352,57.626227 39.617417,57.602251 39.619348,57.599545 C 39.621122,57.596077 39.6534,57.574384 39.65509,57.570532 C 39.656286,57.566616 39.654109,57.545524 39.65509,57.541518 C 39.655862,57.537432 39.654524,57.516665 39.65509,57.512506 C 39.655451,57.508281 39.654931,57.487772 39.65509,57.483492 C 39.655052,57.479163 39.655324,57.458848 39.65509,57.454479 C 39.650835,57.410474 39.641277,57.351997 39.619348,57.309414 C 39.604276,57.284636 39.568264,57.243644 39.547862,57.222375 C 39.540786,57.215538 39.519731,57.199643 39.51212,57.193362 C 39.502067,57.18573 39.485393,57.17052 39.476376,57.16435 C 39.467873,57.158913 39.448109,57.139293 39.440633,57.135337 C 39.43715,57.133729 39.408118,57.13657 39.40489,57.135337 C 39.402676,57.135609 39.37111,57.134683 39.369148,57.135337 z M 39.51212,57.918686 C 39.507105,57.920426 39.48138,57.945739 39.476376,57.947701 C 39.471393,57.949878 39.445591,57.945316 39.440633,57.947701 C 39.430786,57.952874 39.414554,57.970787 39.40489,57.976714 C 39.400116,57.979853 39.373857,58.002419 39.369148,58.005727 C 39.314497,58.049209 39.261813,58.121597 39.226176,58.179805 C 39.223391,58.184707 39.19303,58.203872 39.190433,58.208818 C 39.188037,58.213798 39.192626,58.232822 39.190433,58.237831 C 39.184504,58.252918 39.158552,58.280732 39.154691,58.295857 C 39.15344,58.301508 39.155698,58.319432 39.154691,58.32487 C 39.153165,58.335314 39.15525,58.373315 39.154691,58.382896 C 39.154892,58.387248 39.154253,58.407775 39.154691,58.411909 C 39.155366,58.41582 39.153782,58.437232 39.154691,58.440922 C 39.15745,58.447406 39.186748,58.464355 39.190433,58.469934 C 39.192509,58.472497 39.18813,58.496614 39.190433,58.498946 C 39.193194,58.500821 39.223191,58.497307 39.226176,58.498946 C 39.233045,58.501294 39.254161,58.526556 39.26192,58.527961 C 39.266241,58.528188 39.293124,58.527973 39.297662,58.527961 C 39.302418,58.527706 39.328432,58.528457 39.333405,58.527961 C 39.338808,58.526979 39.363532,58.500176 39.369148,58.498946 C 39.37416,58.497681 39.399874,58.500455 39.40489,58.498946 C 39.409904,58.49721 39.435631,58.50091 39.440633,58.498946 C 39.450602,58.494593 39.466529,58.475109 39.476376,58.469934 C 39.491022,58.461598 39.533735,58.45085 39.547862,58.440922 C 39.622029,58.385396 39.688219,58.288514 39.726576,58.208818 C 39.728768,58.203809 39.724598,58.184832 39.726576,58.179805 C 39.728329,58.174765 39.760794,58.155836 39.762319,58.150792 C 39.763814,58.144929 39.761067,58.12743 39.762319,58.121778 C 39.764331,58.110905 39.761277,58.073766 39.762319,58.063752 C 39.7626,58.058963 39.762279,58.039311 39.762319,58.03474 C 39.761882,58.030607 39.762994,58.00964 39.762319,58.005727 C 39.761408,58.002037 39.763463,57.98018 39.762319,57.976714 C 39.760708,57.973696 39.72842,57.95049 39.726576,57.947701 C 39.721513,57.943493 39.696804,57.921969 39.690833,57.918686 C 39.687174,57.917749 39.658969,57.919389 39.65509,57.918686 C 39.650771,57.91846 39.623886,57.918674 39.619348,57.918686 C 39.614592,57.918942 39.588579,57.918191 39.583605,57.918686 C 39.578202,57.91967 39.553478,57.917459 39.547862,57.918686 C 39.542851,57.919955 39.517135,57.917181 39.51212,57.918686 z M 32.613763,61.864456 L 32.613763,62.618795 C 32.861253,62.851267 33.131336,63.065462 33.22139,63.14103 C 33.257366,63.171218 33.306383,63.181509 33.328619,63.199056 C 33.228313,63.052976 32.868223,62.606937 32.756734,62.1836 C 32.725236,62.064001 32.674847,61.950835 32.613763,61.864456 z M 33.47159,63.199056 C 33.469511,63.201407 33.472836,63.224931 33.47159,63.228068 C 33.471863,63.237603 33.469299,63.27314 33.47159,63.286095 C 33.486686,63.359708 33.507332,63.490288 33.507332,63.663262 C 33.507332,63.766141 33.47788,64.011373 33.435847,64.185498 C 33.427001,64.219017 33.410725,64.275173 33.400104,64.301551 C 33.397336,64.307577 33.402985,64.32515 33.400104,64.330562 C 33.397111,64.335313 33.367467,64.355536 33.364362,64.359576 C 33.362694,64.360812 33.366056,64.387562 33.364362,64.388589 C 33.361361,64.389996 33.331487,64.387043 33.328619,64.388589 C 33.32366,64.392493 33.297323,64.413175 33.292875,64.417601 C 33.277093,64.437354 33.265146,64.477247 33.257133,64.504641 C 33.172677,64.905756 33.802685,65.996905 34.543872,66.622591 C 34.804505,66.852467 35.071073,67.258933 35.1515,67.521995 C 35.21584,67.73244 35.368208,68.007765 35.508927,68.218305 L 37.439037,68.218305 C 37.460193,68.206162 37.48878,68.201897 37.510523,68.189294 C 38.039766,67.882507 38.695011,67.581098 38.940234,67.521995 C 38.95584,67.517277 38.995313,67.499725 39.01172,67.492982 C 39.422627,67.304077 40.044189,66.528168 40.155489,66.12937 C 40.161007,66.105877 40.189822,66.062763 40.191231,66.042331 C 40.19121,66.029453 40.193252,65.995603 40.191231,65.984305 C 40.189704,65.979075 40.157547,65.960085 40.155489,65.955292 C 40.154052,65.953234 40.157067,65.928217 40.155489,65.926278 C 40.152447,65.923375 40.123661,65.929442 40.119746,65.926278 C 39.981673,65.827342 39.506363,65.606329 38.975977,65.433057 C 38.445592,65.259785 37.935435,64.994326 37.796466,64.823783 C 37.788575,64.812446 37.765072,64.80518 37.760722,64.794772 C 37.758549,64.789568 37.763287,64.770995 37.760722,64.765758 C 37.75191,64.749975 37.736934,64.723572 37.72498,64.707732 C 37.716366,64.697195 37.699068,64.660146 37.689238,64.649706 C 37.684037,64.644524 37.658965,64.625829 37.653494,64.620693 C 37.647764,64.615613 37.623728,64.596697 37.617752,64.59168 C 37.611541,64.586737 37.58844,64.567528 37.58201,64.562667 C 37.515639,64.514956 37.411824,64.451415 37.331809,64.417601 C 37.291474,64.401633 37.229847,64.399211 37.188838,64.388589 C 36.926756,64.328298 36.497907,64.142204 36.259526,63.982407 C 36.2552,63.979821 36.228692,63.956065 36.223783,63.953394 C 35.889798,63.785415 34.497751,63.455993 34.079217,63.34412 C 33.741711,63.253908 33.583452,63.206157 33.507332,63.199056 C 33.505047,63.199292 33.473602,63.198635 33.47159,63.199056 z M 44.730565,66.274435 L 44.587594,66.854695 L 44.730565,66.651603 L 44.730565,66.274435 z"
           id="rect4371" />
      </g>
    </g>
  </g>
</svg>
